<svg xmlns="http://www.w3.org/2000/svg" version="1.1" xmlns:xlink="http://www.w3.org/1999/xlink" xmlns:svgjs="http://svgjs.dev/svgjs" width="1000" height="1000" viewBox="0 0 1000 1000"><rect width="1000" height="1000" fill="#070707"></rect><g transform="matrix(0.7,0,0,0.7,149.57821168345953,325.6946229861544)"><svg viewBox="0 0 396 197" data-background-color="#070707" preserveAspectRatio="xMidYMid meet" height="497" width="1000" xmlns="http://www.w3.org/2000/svg" xmlns:xlink="http://www.w3.org/1999/xlink"><g id="tight-bounds" transform="matrix(1,0,0,1,0.23861167621430468,0.20390248213531947)"><svg viewBox="0 0 395.52 196.59486362385033" height="196.59486362385033" width="395.52"><g><svg viewBox="0 0 395.52 196.59486362385033" height="196.59486362385033" width="395.52"><g><svg viewBox="0 0 395.52 196.59486362385033" height="196.59486362385033" width="395.52"><g id="textblocktransform"><svg viewBox="0 0 395.52 196.59486362385033" height="196.59486362385033" width="395.52" id="textblock"><g><svg viewBox="0 0 395.52 196.59486362385033" height="196.59486362385033" width="395.52"><g transform="matrix(1,0,0,1,0,0)"><svg width="395.52" viewBox="38.00157928466797 -6.442610263824463 57.764015197753906 28.71186065673828" height="196.59486362385033" data-palette-color="#ffffff"><path d="M52.813 20.574l-10.829-17.234-3.877 0.157-0.105-2.598 12.979-0.527 0.105 2.598-4.696 0.19 8.273 13.936 7.195-14.564-4.657 0.189-0.105-2.598 12.23-0.497 0.105 2.598-3.657 0.149-9.444 18.058zM54.078 21.664l3.077-0.126 9.285-18.051 4.207-0.171-0.119-2.908 0.65-0.026 0.143 3.527-4.456 0.181-9.285 18.052-3.137 0.127zM54.734 14.911l-6.319-10.692 3.887-0.158-0.118-2.907 0.659-0.027 0.143 3.527-3.467 0.141 5.578 9.431zM58.332 4.437l-0.025-0.62 2.078-0.084-0.314 0.633zM39.238 5.213l-0.025-0.62 2.333 0.526 0.36-0.015zM65.073 20.505l-0.66-2.515 4.256-1.117-3.823-14.566-4.256 1.116-0.66-2.514 12.042-3.161 0.66 2.515-4.217 1.107 2.214 8.434 10.834-11.858-4.362 1.144-0.66-2.514 11.501-3.019 0.66 2.515-3.531 0.927-7.883 8.685 11.474 5.942 4.227-1.109 0.66 2.515-11.801 3.097-0.66-2.515 2.757-0.723-8.968-4.667-3.616 3.989 0.977 3.724 4.217-1.107 0.66 2.515zM79.037 5.364l6.691-7.359 4.295-1.127-0.739-2.815 0.629-0.165 0.896 3.415-4.72 1.238-5.966 6.58 9.818 5.146-0.928 0.244zM71.372 8.027l-1.536-5.851 3.734-0.98-0.739-2.815 0.629-0.165 0.896 3.414-3.734 0.98 1.272 4.846zM61.985 4.877l-0.157-0.6 2.64-0.693 0.157 0.6zM73.121 14.692l-0.571-2.177 2.9-3.211 0.566 0.306-2.754 3.06 0.488 1.857zM82.715 17.054l12.226-3.209-0.719-2.737 0.668-0.175 0.876 3.337-12.894 3.383zM66.31 21.359l12.226-3.209-0.718-2.737 0.638-0.167 0.876 3.337-12.864 3.376z" opacity="1" transform="matrix(1,0,0,1,0,0)" fill="#ffffff" class="undefined-text-0" data-fill-palette-color="primary" id="text-0"></path></svg></g></svg></g></svg></g></svg></g><g></g></svg></g><defs></defs></svg><rect width="395.52" height="196.59486362385033" fill="none" stroke="none" visibility="hidden"></rect></g></svg></g></svg>